<svg xmlns="http://www.w3.org/2000/svg" viewBox="0 0 64 64">
  <rect width="64" height="64" rx="14" fill="#556b2f"/>
  <g fill="#faf9f4">
    <rect x="28" y="8" width="8" height="12" rx="2" transform="rotate(0 32 32)"/>
    <rect x="28" y="8" width="8" height="12" rx="2" transform="rotate(45 32 32)"/>
    <rect x="28" y="8" width="8" height="12" rx="2" transform="rotate(90 32 32)"/>
    <rect x="28" y="8" width="8" height="12" rx="2" transform="rotate(135 32 32)"/>
    <rect x="28" y="8" width="8" height="12" rx="2" transform="rotate(180 32 32)"/>
    <rect x="28" y="8" width="8" height="12" rx="2" transform="rotate(225 32 32)"/>
    <rect x="28" y="8" width="8" height="12" rx="2" transform="rotate(270 32 32)"/>
    <rect x="28" y="8" width="8" height="12" rx="2" transform="rotate(315 32 32)"/>
    <circle cx="32" cy="32" r="17"/>
  </g>
  <circle cx="32" cy="32" r="7.5" fill="#556b2f"/>
</svg>
